# xmcd CD database file
#
# Track frame offsets:
#	183
#	27475
#	47533
#	70510
#	98068
#	119750
#	141783
#	160975
#	178263
#	211300
#	234598
#	267888
#	290165
#	310068
#
# Disc length: 4417 seconds
#
# Revision: 0
# Processed by: cddbd v1.5.1PL2 Copyright (c) Steve Scherf et al.
# Submitted via: CDex 1.51
#
DISCID=cf113f0e
DTITLE=Art Pepper - BEST SELECTION
DYEAR=1900
DGENRE=Jazz
TTITLE0=Blues In
TTITLE1=Bewitched, Bothered and Bewildered
TTITLE2=Stompin' At The Savoy
TTITLE3=What Is This Thing Called Love
TTITLE4=Blues Out
TTITLE5=When You're Smiling
TTITLE6=Cool Bunny
TTITLE7=Diane's Dilema
TTITLE8=Summertime
TTITLE9=Holiday Flight
TTITLE10=Begin The Beguine
TTITLE11=Webb City
TTITLE12=Fascinating Rhythm
TTITLE13=urf Ride
EXTD=
EXTT0=
EXTT1=
EXTT2=
EXTT3=
EXTT4=
EXTT5=
EXTT6=
EXTT7=
EXTT8=
EXTT9=
EXTT10=
EXTT11=
EXTT12=
EXTT13=
PLAYORDER=
